<svg xmlns="http://www.w3.org/2000/svg" width="40" height="40" viewBox="0 0 40 40">
    <g fill="#FFF" fill-rule="evenodd" opacity=".8">
        <path d="M20 0C8.954 0 0 8.954 0 20s8.954 20 20 20 20-8.954 20-20S31.046 0 20 0zm8.335 13.124c.918.252 1.64.994 1.886 1.937.446 1.708.446 5.272.446 5.272s0 3.564-.446 5.273a2.709 2.709 0 0 1-1.886 1.936C26.67 28 20 28 20 28s-6.671 0-8.335-.458a2.709 2.709 0 0 1-1.886-1.936c-.446-1.709-.446-5.273-.446-5.273s0-3.564.446-5.272a2.708 2.708 0 0 1 1.886-1.937c1.664-.457 8.335-.457 8.335-.457s6.671 0 8.335.457z"/>
        <path fill-rule="nonzero" d="M18 24v-6.667l5.333 3.334z"/>
    </g>
</svg>
