<svg xmlns="http://www.w3.org/2000/svg" width="40" height="40" viewBox="0 0 40 40">
    <g fill="#FFF" fill-rule="nonzero" opacity=".8">
        <path d="M20.036.15C9.012.15.073 9.24.073 20.454c0 8.97 5.72 16.581 13.652 19.266.998.188 1.364-.44 1.364-.977 0-.484-.019-2.083-.027-3.78-5.554 1.229-6.726-2.395-6.726-2.395-.908-2.347-2.216-2.971-2.216-2.971-1.812-1.26.136-1.235.136-1.235 2.005.143 3.06 2.093 3.06 2.093 1.78 3.104 4.67 2.206 5.81 1.688.179-1.312.696-2.209 1.267-2.715-4.434-.514-9.095-2.255-9.095-10.035 0-2.216.78-4.028 2.057-5.45-.208-.511-.89-2.576.193-5.373 0 0 1.676-.546 5.491 2.081 1.593-.45 3.3-.675 4.997-.683a18.88 18.88 0 0 1 5.001.683c3.81-2.627 5.484-2.08 5.484-2.08 1.087 2.796.403 4.86.196 5.372 1.28 1.422 2.055 3.234 2.055 5.45 0 7.799-4.67 9.516-9.116 10.018.716.63 1.354 1.866 1.354 3.76 0 2.717-.023 4.903-.023 5.572 0 .54.36 1.174 1.371.975 7.928-2.688 13.64-10.296 13.64-19.264C39.999 9.24 31.062.15 20.037.15z"/>
        <path d="M7.634 29.302c-.044.101-.2.131-.342.062-.145-.066-.226-.204-.18-.305.044-.104.2-.133.345-.064.145.067.227.206.177.307zM8.443 30.22c-.096.089-.282.047-.408-.095-.13-.141-.155-.33-.059-.422.099-.09.28-.047.41.094.13.143.156.331.057.422zM9.23 31.389c-.123.086-.322.005-.446-.176-.123-.18-.123-.397.002-.483.124-.087.322-.01.447.17.122.183.122.4-.003.489zM10.308 32.518c-.11.123-.342.09-.513-.077-.175-.164-.223-.397-.113-.52.11-.122.345-.088.517.079.173.163.226.397.11.518zM11.796 33.174c-.048.16-.273.232-.5.164-.225-.07-.373-.256-.327-.417.047-.16.272-.235.5-.163.226.07.374.255.327.416zM13.43 33.296c.005.167-.187.306-.424.309-.239.006-.432-.13-.434-.295 0-.169.187-.306.426-.31.237-.005.432.13.432.296zM14.95 33.033c.028.163-.137.33-.373.375-.231.044-.446-.057-.475-.22-.029-.167.139-.335.37-.378.236-.042.448.057.478.223z"/>
    </g>
</svg>
