<svg xmlns="http://www.w3.org/2000/svg" width="32" height="32" viewBox="0 0 32 32">
    <g fill="#000" fill-rule="evenodd" opacity=".8">
        <path d="M16 0C7.163 0 0 7.163 0 16s7.163 16 16 16 16-7.163 16-16S24.837 0 16 0zm6.668 10.5a2.167 2.167 0 0 1 1.509 1.549c.356 1.366.356 4.218.356 4.218s0 2.85-.356 4.218a2.167 2.167 0 0 1-1.51 1.549C21.338 22.4 16 22.4 16 22.4s-5.337 0-6.668-.366a2.167 2.167 0 0 1-1.509-1.55c-.356-1.366-.356-4.217-.356-4.217s0-2.852.356-4.218a2.167 2.167 0 0 1 1.51-1.55c1.33-.366 6.667-.366 6.667-.366s5.337 0 6.668.367z"/>
        <path fill-rule="nonzero" d="M14.4 19.2v-5.333l4.267 2.666z"/>
    </g>
</svg>
