<svg xmlns="http://www.w3.org/2000/svg" width="32" height="32" viewBox="0 0 32 32">
    <g fill="none" fill-rule="nonzero" opacity=".8">
        <path fill="#000" d="M16.029.12C7.209.12.059 7.392.059 16.363c0 7.177 4.575 13.265 10.92 15.413.8.15 1.092-.352 1.092-.781 0-.388-.015-1.667-.022-3.024-4.443.982-5.38-1.917-5.38-1.917-.727-1.877-1.773-2.377-1.773-2.377-1.45-1.008.109-.987.109-.987 1.604.114 2.448 1.674 2.448 1.674 1.424 2.483 3.736 1.765 4.647 1.35.144-1.05.558-1.767 1.014-2.172-3.547-.41-7.276-1.803-7.276-8.027 0-1.774.624-3.223 1.646-4.36-.166-.41-.713-2.062.154-4.299 0 0 1.342-.436 4.393 1.665 1.274-.36 2.64-.54 3.998-.546 1.357.006 2.724.186 4 .546 3.049-2.101 4.388-1.665 4.388-1.665.87 2.237.322 3.89.157 4.299 1.024 1.137 1.643 2.586 1.643 4.36 0 6.238-3.736 7.612-7.292 8.014.573.504 1.083 1.493 1.083 3.008 0 2.173-.018 3.923-.018 4.458 0 .432.287.939 1.097.78 6.342-2.151 10.912-8.238 10.912-15.412 0-8.971-7.15-16.243-15.97-16.243z"/>
        <path fill="#FFF" d="M6.107 23.442c-.035.08-.16.104-.273.05-.116-.054-.181-.164-.144-.245.035-.083.16-.106.275-.05.116.053.182.164.142.245zM6.754 24.175c-.076.072-.225.039-.326-.075-.105-.113-.124-.264-.047-.337.079-.072.223-.038.328.075.104.114.125.265.045.337zM7.384 25.11c-.098.07-.258.005-.357-.14-.098-.144-.098-.317.002-.386.1-.07.257-.007.357.136.098.147.098.32-.002.39zM8.247 26.015c-.088.098-.274.071-.41-.063-.14-.13-.18-.316-.092-.415.089-.098.276-.07.414.063.139.13.18.318.088.415zM9.437 26.54c-.039.127-.219.184-.4.13-.18-.055-.298-.204-.262-.333.038-.128.218-.188.4-.13.18.055.3.203.262.332zM10.744 26.637c.004.134-.15.245-.34.247-.19.004-.345-.104-.347-.236 0-.135.15-.245.341-.248.19-.004.346.104.346.237zM11.96 26.426c.022.13-.11.265-.298.3-.185.035-.357-.045-.38-.175-.024-.134.11-.268.296-.303.189-.033.358.045.382.178z"/>
    </g>
</svg>
